<svg width="50" height="50" viewBox="0 0 50 50" fill="none" xmlns="http://www.w3.org/2000/svg">
<path d="M6.25 12.5H10.4167H43.75" stroke="white" stroke-width="2" stroke-linecap="round" stroke-linejoin="round"/>
<path d="M16.6666 12.5V8.33334C16.6666 7.22827 17.1056 6.16846 17.887 5.38706C18.6684 4.60566 19.7282 4.16667 20.8333 4.16667H29.1666C30.2717 4.16667 31.3315 4.60566 32.1129 5.38706C32.8943 6.16846 33.3333 7.22827 33.3333 8.33334V12.5M39.5833 12.5V41.6667C39.5833 42.7717 39.1443 43.8316 38.3629 44.613C37.5815 45.3944 36.5217 45.8333 35.4166 45.8333H14.5833C13.4782 45.8333 12.4184 45.3944 11.637 44.613C10.8556 43.8316 10.4166 42.7717 10.4166 41.6667V12.5H39.5833Z" stroke="white" stroke-width="2" stroke-linecap="round" stroke-linejoin="round"/>
<path d="M20.8334 22.9167V35.4167" stroke="white" stroke-width="2" stroke-linecap="round" stroke-linejoin="round"/>
<path d="M29.1666 22.9167V35.4167" stroke="white" stroke-width="2" stroke-linecap="round" stroke-linejoin="round"/>
</svg>
